<?xml version="1.0" encoding="utf-8"?>
<!-- Generator: Adobe Illustrator 19.0.0, SVG Export Plug-In . SVG Version: 6.00 Build 0)  -->
<svg version="1.1" id="Camada_1" xmlns="http://www.w3.org/2000/svg" xmlns:xlink="http://www.w3.org/1999/xlink" x="0px" y="0px"
	 viewBox="194 -104 1000 1000" style="enable-background:new 194 -104 1000 1000;" xml:space="preserve">
<style type="text/css">
	.st0{fill:#FFFFFF;}
</style>
<g>
	<path class="st0" d="M692.5,756.1c-0.3-0.5-0.1-1.2,0.5-1.6c1.4-0.9,1.3-16.8-0.2-18.3c-1.7-1.7-1.1-1.9,7.5-2.4l7.7-0.5v2.9
		c0,2.8-2.2,3.9-3.5,1.8c-0.3-0.5-1.7-1-3.1-1c-2,0-2.4,0.5-2.4,3c0,2.8,0.2,3,4.1,3c3.3,0,4,0.3,3.7,1.8c-0.2,1.2-1.4,1.8-4.1,2
		c-3.4,0.3-3.7,0.6-3.7,3.3c0,2.5,0.4,2.9,2.6,2.9c1.5,0,3.2-0.7,3.9-1.7c1.6-2.2,3.5-0.8,3.5,2.8v2.9h-7.9
		C696.7,757,692.9,756.6,692.5,756.1z"/>
	<path class="st0" d="M665.6,755.1c-0.4-0.6,0.1-2.2,1-3.6c1.3-2,1.6-4.2,1.2-11.1l-0.5-8.6l5.9,0.6c11,1.1,14.9,5.6,12.9,14.6
		c-1.5,6.7-3.8,8.4-12.5,8.8C669,756.1,666,755.8,665.6,755.1z M680.2,750.3c2.6-2.3,2.5-9.6-0.2-12.3c-1.1-1.1-3.1-2-4.4-2
		c-1.9,0-2.4,0.6-3,3.8c-0.3,2-0.6,5.6-0.6,8c0,4.1,0.1,4.2,3.2,4.2C676.9,752,679.2,751.3,680.2,750.3z"/>
	<path class="st0" d="M726,754.5c0-0.8,1.6-3.9,3.5-6.9c4.4-6.6,5-10.9,1.7-11.4c-1.7-0.3-2.5,0.2-2.9,1.7c-0.7,2.9-3,2.6-3.5-0.4
		c-1.1-5.6,9.3-7.3,12.8-2c1.3,2.1,1.4,2.7,0,6c-0.9,2-2.5,4.9-3.6,6.5c-2.7,3.9-2.6,4.1,2.1,3.4c3.6-0.6,4.1-0.5,3.7,1.2
		c-0.4,2.1-3.5,3.2-9.5,3.3C727.1,756,726,755.6,726,754.5L726,754.5z"/>
	<path class="st0" d="M646.3,753c-1.7-0.7-2.3-1.8-2.3-4c0-3.5,2.9-4.3,3.7-0.9c0.4,1.6,1.2,1.9,3.7,1.7c4.7-0.5,4.5-3.2-0.4-6.3
		c-2.2-1.4-4.6-3.7-5.2-5c-2.5-5.5,5.4-10.3,12.2-7.5c3,1.2,3.5,2.5,2.4,5.4c-0.9,2.3-3.1,2-3.7-0.5c-0.4-1.6-1.2-2-3.4-1.7
		c-4.4,0.5-4.1,3.3,0.6,5.8c6.3,3.1,7.8,7.8,4.1,11.8C655.8,754.2,650.5,754.7,646.3,753L646.3,753z"/>
	<path class="st0" d="M750.2,752.3c-2.3-0.9-5.2-8.1-5.2-12.8c0-3.5,0.6-5.2,2.5-7c3-3,7.7-3.3,10.4-0.6c4.6,4.6,5.1,15.1,1,19.2
		C757.1,752.9,753.1,753.5,750.2,752.3L750.2,752.3z M756.8,743.9c0.5-8-3.3-13.6-6.4-9.4c-1.8,2.4-1.8,6.7,0.1,11.1
		c1.1,2.8,1.9,3.5,3.7,3.2C756.2,748.5,756.5,747.8,756.8,743.9L756.8,743.9z"/>
	<path class="st0" d="M626.5,749.9c-5.2-1.3-6.3-2.4-4.3-4.6c1.9-2.2,4-13.9,3.1-17.2c-0.5-1.9-0.3-2.3,0.9-1.9
		c0.8,0.3,4.5,0.9,8.2,1.3c6.3,0.7,6.7,0.9,6.2,2.9c-0.3,1.1-0.6,2.4-0.6,2.9c0,1.3-2.9,0.7-3.8-0.9c-1.2-2.1-5.6-1.4-6,1
		c-0.5,2.2,1.3,3.6,4.6,3.6c1.6,0,2.2,0.6,2.2,2.1c0,1.9-0.4,2.1-3.6,1.4c-3.9-0.7-5.4,0.3-5.4,3.7c0,2.1,3.7,3.3,5.5,1.8
		c2.3-1.9,4.3-0.5,3.8,2.4c-0.5,2.2-1.1,2.6-3.7,2.5C631.9,750.8,628.7,750.4,626.5,749.9L626.5,749.9z"/>
	<path class="st0" d="M770,748c0-0.6,0.9-1.4,2-1.7c2.3-0.6,2.4-0.9,0.9-7.1c-1.7-7.6-1.6-7.4-3.8-6.2c-1.4,0.7-2.2,0.7-2.7-0.1
		c-0.9-1.5,5.1-7.3,6.8-6.6c0.9,0.3,2.2,4,3.3,9.1c1.3,6.4,2.3,8.9,3.7,9.7c2.9,1.6,1,2.8-5,3.6C771.4,749.1,770,748.9,770,748z"/>
	<path class="st0" d="M600,743.3c-0.8-0.3-2.6-1-3.9-1.5c-2.4-0.9-2.4-0.9-0.4-2.7c2.4-2.3,5.6-14.1,4.7-17.6
		c-0.3-1.4-0.3-2.5,0.2-2.5c2.7,0,12.6,3.5,14.3,5.1c4.3,4,3.9,12.3-0.9,17.1c-2.4,2.3-3.6,2.8-7.7,2.7
		C603.7,743.9,600.8,743.6,600,743.3L600,743.3z M611.6,737.5c2-3.1,2.2-9.1,0.3-11c-0.8-0.8-2.5-1.6-3.8-1.7
		c-2.1-0.3-2.5,0.4-4.6,7.5l-2.3,7.7h4.4C609.1,740,610.3,739.5,611.6,737.5z"/>
	<path class="st0" d="M789,741.5c-4.7-5-3.5-17.6,1.9-20.5c4.6-2.4,5.7,0.3,1.6,3.8c-1.4,1.2-2.5,3.1-2.5,4.1c0,1.7,0.3,1.8,2.9,0.8
		c5.7-2.1,10.3,2.4,8.7,8.7C800.1,744.3,793.3,746,789,741.5L789,741.5z M797,739.5c0.7-0.9,1-2.5,0.6-4.1c-0.5-2-1.2-2.5-3.4-2.2
		c-3.2,0.4-4.2,3.7-1.7,6.2C794.5,741.4,795.4,741.4,797,739.5L797,739.5z"/>
	<path class="st0" d="M678.5,715.8c-66.1-2.8-131.5-27.7-185-70.5c-14-11.2-36.5-33.7-47.9-47.8c-68.1-85-89.1-196.8-56.1-299.5
		c21.8-67.8,67.2-128.1,126.5-167.9c92.7-62.2,211.7-71.9,313-25.6c91.9,42.1,159.3,125.9,180.4,224.5c5.3,24.8,6.1,33.2,6.1,67.5
		c-0.1,28-0.4,33.7-2.3,45.8c-9.7,60.7-32.9,112.5-70.9,158.4c-9.5,11.5-30.4,32.4-41.8,41.9c-40.3,33.4-90,57.1-141.5,67.4
		C732.3,715.4,708.3,717.1,678.5,715.8z M732.5,694.5c35.7-4.6,65.6-13.7,97.6-29.7c83.6-41.7,142-118,160.9-210.2
		c4-19.6,5.3-34.1,5.3-58.6c0-31.1-2.4-50.1-10.4-79.9c-22.3-84-85.4-157.7-166-194.1c-112.1-50.6-243.3-28.4-332.2,55.9
		c-47,44.7-78.9,104.3-89.6,167.7c-6.3,37.3-5.2,78.3,2.9,115.9c11.3,51.6,39,103.3,76.6,142.4c51,53.2,119.1,85.6,192.9,92
		C685.2,697.2,717.6,696.5,732.5,694.5L732.5,694.5z"/>
	<path class="st0" d="M670,673.4c-50.7-6.2-91-20.5-129-45.9c-17.8-11.9-27.5-19.9-43.6-35.9c-21.5-21.6-38-44.3-51.3-70.6
		c-22.8-45-32.3-90-29.9-141.5c3.2-68.9,32.3-134.3,81.7-183.4c43.6-43.4,98.3-70.6,160.6-79.8c14.8-2.1,56.9-2.4,71.5-0.5
		c53.4,7.1,102.6,27.9,142.5,60.2c16.8,13.5,37.7,35.4,50.7,53.1c44.9,60.8,63,140.3,49.2,215.4C962.1,501,935.6,551.4,895,592
		c-43,43-96.2,69.8-158,79.6C726.9,673.2,678.9,674.5,670,673.4L670,673.4z M734.4,652c80.3-11.9,150.4-60.3,190.4-131.7
		c14.2-25.3,24.9-56.5,29.8-86.8c2.1-13.5,3-51.1,1.5-65.7c-9.4-89.7-63.7-167.6-144.6-207.3c-18.3-9-32.5-14.2-51.5-18.9
		c-21.9-5.4-32.1-6.8-56.8-7.3c-25.4-0.6-37.7,0.4-59.6,4.8c-39,7.8-79.5,26.9-111.6,52.5c-11.4,9.2-29.9,27.8-39.2,39.4
		c-10.7,13.5-15.6,20.8-23.6,34.7c-36.6,64-44,141.6-20.3,211.6c32,94.3,114.4,162,213.1,175.1c16.6,2.2,20.5,2.4,40.5,2
		C713.5,654.2,725.9,653.2,734.4,652z"/>
	<path class="st0" d="M729.3,582.6c1.5-1.2,1.7-3.7,1.7-26.6c0-13.9,0.3-25.1,0.6-24.7c0.9,0.9,3-1.4,4-4.3
		c1.2-3.7,0.5-66.2-0.8-67.7c-0.6-0.7-1.1-4.8-1.2-9.2l-0.1-7.8l9-0.7c10.5-0.7,17.7-2.5,25-6.1c5.2-2.5,8.8-6.3,8.3-8.8
		c-0.1-0.6,0.4-2.3,1.1-3.7c1.1-1.9,1.2-5.5,0.7-16.2c-0.7-14.5-1.1-16.8-3.1-16.8c-0.6,0-5.9,2.2-11.6,4.9
		c-13.6,6.4-20.7,8.8-36.4,12.1c-11.5,2.4-13,2.9-12.7,4.6c0.2,1,3.3,9.2,6.8,18.1c3.6,8.9,6.7,18.4,7.1,21.2
		c0.5,4.8,0.4,5.1-3.9,9.8c-4.3,4.6-9.2,12.3-6.9,10.9c2.7-1.7,0.7,1.8-3.8,6.5c-2.8,2.9-4.8,5.5-4.7,5.8c0.2,0.3-0.7,2.2-2,4.1
		c-1.3,1.9-2.4,3-2.4,2.4s0.9-2.4,2.1-4c1.1-1.6,0-0.6-2.6,2.1l-4.6,5l-2.4-2.9c-4.7-5.8-12.5-20-12.5-22.7c0-1.5-0.4-3.1-1-3.4
		c-0.5-0.3-1,0.1-1,0.9c0,2.6-1.5,1.8-5.9-2.9c-2.8-3.1-4.1-5.3-4.1-7.4c0-1.6,3.1-11.3,7-21.7c3.8-10.3,6.9-18.8,6.7-18.8
		c-0.1-0.1-4.5-1.2-9.7-2.5c-14.8-3.6-30.1-9.7-46.5-18.3c-2.7-1.5-5.9-2.8-7-3c-2.9-0.5-3.9,3.6-3,12.8c0.7,6.4,1,7.3,1.6,4.9
		c0.4-2,0.6-0.6,0.5,4.2c-0.1,6.5,0.1,7.4,3,11c1.6,2.1,6,6.1,9.7,8.8l6.7,5v17.9c0,9.9,0.2,17.7,0.4,17.5c0.2-0.2,0.9-6.5,1.5-13.9
		c0.7-7.4,1.4-15,1.7-16.8l0.5-3.3l3.2,2.3c1.7,1.2,5.2,2.5,7.7,2.8l4.5,0.5l0.7,11c0.8,13.4,1.1,72.6,0.3,73.3
		c-0.4,0.4-2.9-0.2-9.5-2.4c-0.8-0.3,1.3,1.2,4.8,3.2l6.2,3.8v11.8c0,6.5-0.3,11.8-0.8,11.8c-0.4,0-2.4-0.9-4.5-2
		c-5-2.7-4.7-1.8,0.8,2.1l4.5,3.2v8.6c0,9.6-0.7,13.1-2.4,13.1c-1.9,0-15.1-14-21.1-22.5c-9.3-13-17.1-30.5-20.4-45.5
		c-0.7-3-1.5-6.1-1.7-6.9c-0.3-1-3.3,1.2-9.2,7c-4.8,4.6-11.5,11-14.8,14.3l-6.2,5.8l-6.3-6.2l-6.4-6.3l3.5-2.6
		c7.2-5.5,12.8-10.7,25-23.5c14.5-15.2,14.4-14.9,12.9-30.1c-0.7-8.4-1.3-10.4-4.3-15.3c-6.3-10.4-7.1-14.9-6.9-39.7
		c0.1-12.1,0.6-26,1.1-31l1-9l4.8-4c6.8-5.7,14-12.4,13.3-12.5c-0.3,0-3.9,2.5-7.9,5.5s-7.8,5.5-8.3,5.5c-1.4,0,0-8.2,3-18.3
		l2.6-8.8l-5.9-6c-4.4-4.4-6.4-5.9-7.9-5.5s-2.8-0.4-4.8-2.9c-1.5-1.9-5.2-5-8.1-6.9c-3-1.9-6.2-4.7-7.2-6.2
		c-3.3-5-13-14.2-17.2-16.3l-4-2.1l-3.3,3.7c-8.3,9.5-10.7,22.2-6,31.3c3.2,6.2,7.3,10.3,15.9,15.6c6.7,4.2,7.5,5.1,10.7,11.7
		c1.8,4,3.2,7.3,3,7.5c-0.8,0.8-15.4-2-22.4-4.4c-11-3.6-28.2-12.5-39.1-20.2c-17.5-12.4-36.7-33.5-45.1-49.8l-4.1-7.9l5.1-0.3
		c4-0.2,6.5,0.3,10.9,2.4c13.8,6.5,34.6,3.3,47.2-7.4c3.3-2.8,3.4-3,2.2-6.9c-0.7-2.2-1.2-5.2-1.2-6.6c0-1.6-0.7-2.8-1.9-3.2
		c-1.1-0.3-2.1-1.9-2.5-3.7c-0.3-1.7-2.6-6.6-5.1-10.8c-2.5-4.2-4.5-8.2-4.5-8.8c0-1.5,2.8-0.4,11.5,4.7c3.8,2.3,8,4.1,9.2,4.1
		s2.8,0.8,3.5,1.9c0.9,1.3,3.2,2,7.9,2.5l6.6,0.7l4.2-5.2c2.3-2.9,5.7-7.8,7.6-10.9l3.5-5.7l4.7,0.8c6.4,1.2,15.3,4.2,30.3,10.1
		c15.4,6.1,38.2,17.6,37.5,18.9c-1,1.5-6.6,1-15.1-1.2c-6.5-1.7-9.4-1.9-15.9-1.3c-4.4,0.4-9.5,0.6-11.3,0.5c-1.8,0-5.5,1.1-8.4,2.5
		c-9,4.5-18.8,16.5-16.2,19.8c0.5,0.7,2.6,3.8,4.6,6.8c2.1,3.1,5.1,6.6,6.9,7.9c4.9,3.7,10.1,9.2,13.2,13.8c1.5,2.3,4.1,5,5.8,5.9
		c2.4,1.4,2.9,2.2,2.5,4.3c-0.4,2,0.5,3.5,4.2,7.3l4.7,4.8l2.5-3.3c16.8-22.1,21.3-25.8,47.1-38.9c10.9-5.5,20.3-10,20.9-10
		c0.7,0,0.1,1.9-1.4,4.5c-3.7,6.2-2,5.5,3.7-1.6c5.3-6.5,9.9-9.9,13.5-9.9c3.1,0,8,2.6,21.9,11.6c6.5,4.2,14.7,9.6,18.3,11.9
		c12.4,8,23.6,18.6,30.1,28.5c1.6,2.5,1.7,2.5,3.8,0.6c1.6-1.5,2-2.6,1.5-5.1c-0.5-2.9-0.2-3.3,2.6-4.5c2.2-0.9,4.6-3.5,7.6-8.1
		c3-4.7,5.7-7.6,8.9-9.4c3.3-2,6-4.9,9.5-10.3c2.8-4.1,5-8.1,5-8.9c0-2.5-6-10.2-11.1-14.3c-6.3-4.9-9-5.7-22.9-6.4
		c-9.8-0.5-12.5-0.3-18,1.4c-7.5,2.3-15.4,2.7-14.8,0.8c0.6-1.7,22.3-12.8,34.5-17.7c8.7-3.4,28.8-10,35.1-11.4
		c1.9-0.4,3.1,0.8,8.6,9.2c3.6,5.4,7.1,10.3,8,11c2.4,2,14.4,0.4,15.7-2c0.5-1.1,1.8-1.9,2.8-1.9s6.2-2.2,11.4-5
		c5.2-2.7,9.8-5,10.1-5c0.9,0-1,4.2-4.8,10.5c-2,3.3-4.1,7.7-4.6,9.7c-0.6,2.2-1.8,3.9-3,4.3c-1.6,0.5-2,1.5-2,4.6
		c0,2.2-0.5,4.9-1.1,6.1c-0.9,1.7-0.6,2.5,1.7,4.9c3.8,4,9.6,7.3,17.4,9.9c8.8,3,22.3,2.6,29-0.9c4.7-2.4,17-4.4,17-2.8
		c0,2.4-6.7,14.5-12.1,21.7c-23.8,32.2-61.3,56.4-93.5,60.5l-5.1,0.6l3.3-6.9c3.4-7.2,6.9-10.9,13.5-14.2
		c5.4-2.8,10.8-8.6,13.7-14.8c1.9-4.3,2.3-6.5,2-11c-0.5-6.2-4.1-14.5-8.7-20.1l-2.8-3.4l-4.4,2.5c-6.7,4-12.8,9.6-15,13.9
		c-1.4,2.8-4,5.3-9,8.5c-3.9,2.4-7.8,5.8-8.7,7.4c-1.4,2.5-2.2,2.9-4.2,2.5s-3.3,0.2-5.9,2.9l-3.4,3.5l2.6,7.9c3,9,5,20.3,4.5,25.6
		l-0.3,3.6l-5.4-2.5c-3-1.4-8.4-4.6-12-7.1c-6.5-4.4-6.5-4.4-2.3-0.7c2.3,2.1,8,5.8,12.5,8.3c11.1,6.2,11.1,6.1,10.4,34
		c-0.6,21.4-2.3,35.7-5.2,42.6c-0.7,1.8-3,4.8-4.9,6.5c-5.2,4.5-6.4,9.3-4.2,17.2c1,3.4,2.2,9.2,2.6,12.9c0.7,6.4,1,7,7.1,13.7
		c5.5,6.1,13.6,13.6,26.4,24.4l3,2.5l-6.3,6.3l-6.2,6.2l-12.5-12.2c-6.8-6.7-12.9-12-13.4-11.7c-0.5,0.4-1.2,2.5-1.6,4.9
		c-2,11.3-10.2,30.5-18.7,43c-5.8,8.6-16.9,19.1-24.1,22.7C730.3,584.2,725.9,585.1,729.3,582.6L729.3,582.6z M699.5,436.9
		c-0.2-11-0.6-20.3-0.9-20.6c-0.8-0.8-0.8,30.1,0,36.1c0.4,2.5,0.8,4.6,0.9,4.6S699.6,448,699.5,436.9z M699.4,306.3
		c2.3-13.3,1.8-15.4-1.8-8.4c-2.1,4.1-3,7.8-3.8,15.5c-1.3,12.8-0.4,51.3,1.4,58.1c1.2,4.5,1.4,2.3,1.9-25
		C697.5,324.8,698.2,313.7,699.4,306.3z"/>
	<path class="st0" d="M724.5,558c0.2-7.4,0.9-14.8,1.4-16.5c1.1-3.4,0.5,11.9-1,23.5C724.3,569.8,724.2,568,724.5,558z"/>
	<path class="st0" d="M729.7,493c0.3-15.1,0.9-29.7,1.4-32.5c1-6.3,0,44.6-1.1,53.5C729.5,517.7,729.4,508.8,729.7,493L729.7,493z"
		/>
	<path class="st0" d="M493,517.5c0-0.2,4.4-6,9.9-12.8c12.1-15.2,12.5-15.8,11.6-21.1c-0.5-3.5-1.3-4.5-5.2-7
		c-9.2-5.9-12.7-13.7-13.9-31l-0.7-10.6h-3.4c-4.1,0-6.8,2.4-10.8,9.8c-1.8,3.4-3.4,5.2-4.4,5C474,449.4,466,430.5,466,426
		c0-1.9,0.9-5.4,1.9-7.6c2.8-6.1,11.5-17.7,17.1-22.7c5.8-5.2,10.6-6.7,21.7-6.7h7.8l6-7.6c5.4-7,10-11.3,10.9-10.3
		c0.3,0.2-0.5,3.1-1.6,6.3c-1.6,4.5-1.9,6.8-1.2,9.5c1.2,4.5,2.6,4.9,21.9,5.7c18,0.8,21.4,0,29-6.1c9.4-7.7,7.5-5-4.7,6.8
		c-10.9,10.4-11.8,11.6-13.4,17.1c-1.2,4.4-1.5,8.3-1.2,14.8c0.7,10.8-1.2,11.8-2.6,1.4c-0.7-5.2-0.6-8.4,0.7-14.4
		c1-4.3,1.7-8.2,1.7-8.9c0-0.6-2.5-0.1-6.2,1.4c-5.3,2.2-7.1,2.4-12.7,1.9c-3.6-0.4-7.6-0.9-8.8-1.3l-2.3-0.5v25.4
		c0,19.5-0.4,26.7-1.5,31.2c-0.9,3.3-1.4,6.1-1.2,6.3c0.2,0.2,3.3,0.6,6.9,1c8,0.7,11.7-0.5,18.3-5.7c8.1-6.4,6.6-3.4-3,5.9
		c-12.6,12.2-19.9,16.1-25.7,13.6c-1.4-0.5-2.3,0.5-4.7,5.5c-1.7,3.5-5,8.8-7.3,11.9C505,508.9,493,520.2,493,517.5L493,517.5z"/>
	<path class="st0" d="M664.3,478.5c-0.1-17.6,0.3-30.9,0.7-29.5c1,3.1,1,37.9,0,51.5C664.6,507.4,664.3,500.6,664.3,478.5z"/>
	<path class="st0" d="M861,495c-0.7-0.4,0.1-1.6,2.4-3.3c2.1-1.6,4.8-5.4,6.7-9.3c3-6,3.3-7.6,3.6-17.8c0.2-6.1,0-13.1-0.4-15.6
		c-0.7-3.8-1.2-4.5-3.3-4.8l-2.5-0.3l0.3,11.7c0.2,6.5,0.1,12.7-0.2,14c-0.7,2.8-8.3,11.2-16.9,18.6l-6.8,5.9l-4.1-2.3
		c-6.2-3.5-17.4-14.3-19.7-19.1c-1.2-2.4-2.1-6.3-2.1-8.6c0-3.9,0.6-4.9,5.9-10.4c3.3-3.4,6.3-5.9,6.6-5.5c0.4,0.4,0.3,3.4-0.3,6.7
		c-1.4,7.7-0.1,12.5,4.4,16.8c3.7,3.5,12.8,7.3,17.4,7.3c3.8,0,4.2-1.7,3-13.1c-0.5-5.2-1.3-12.2-1.6-15.6l-0.7-6.3H848
		c-5.2,0-16,1.9-16,2.9c0,0.3-2.3,0.7-5,0.8c-3.2,0.1-5-0.3-5-1c0-0.6,2.5-3.5,5.5-6.4c5.7-5.4,13.9-9.3,19.5-9.3
		c4.9,0,6-2.1,6-11.5c0-16.3,6.5-28.3,18.3-33.8c5-2.3,11.7-4.2,11.7-3.2c0,0.3-3.6,4.7-8,9.9l-8,9.5v8.8c0,13.3,0.9,19.5,2.9,19.1
		c1.3-0.3,1.6-2,1.7-10.1c0.1-6.8,0.6-10.4,1.7-12c2.9-4.3,23-27.2,24.1-27.5c0.6-0.1,5.9,3.5,11.7,8.1c5.8,4.5,13.3,10,16.7,12.2
		s6.2,4.3,6.2,4.6c0,0.4-4.2,3.9-9.2,7.8c-9.9,7.5-10,7.5-11.2,0.8c-0.5-2.8-2-5.1-5.4-8.3c-4.4-4.1-7.3-5.5-15-7l-3.2-0.6v14.4
		c0,8,0.3,14.7,0.6,15.1c0.3,0.3,2.5,0,4.7-0.7c2.3-0.7,5.3-1.6,6.7-2s0.4,0.6-2.5,2.5c-2.7,1.7-5.4,3.5-5.9,4
		c-0.6,0.5,3.6,0.9,10.1,0.9c10.8,0,11.1-0.1,14.9-3.1c2.1-1.7,4-2.6,4.2-2c0.2,0.5-1.1,10.1-3,21.3l-3.2,20.3l-0.8-8
		c-0.8-8.5-3.1-16-5.1-16.7c-0.7-0.3-5.2-0.2-10.1,0.1l-8.9,0.6l0.2,9.5c0.3,14.9-2.2,23.8-9,31.5C875.6,491.5,864.2,497,861,495
		L861,495z"/>
	<path class="st0" d="M691.3,489.8c-2.9-3.2-5.7-7.8-5.1-8.4c0.3-0.2,1.3,0.8,2.3,2.3s2.9,4,4.3,5.6c1.4,1.5,2.1,2.7,1.6,2.7
		C693.8,492,692.4,491,691.3,489.8L691.3,489.8z"/>
	<path class="st0" d="M851.6,699.3c-0.9-2.2,0.2-3,12.4-9.3c21.1-10.8,50-32.4,71.8-53.4c30-29.2,50.1-56.3,68.2-92.5
		c18.1-36.1,28.2-70.1,33.6-112.6c2.2-17,2.5-59.6,0.5-75c-5.7-46-17.5-84.7-36.8-121.4c-6.2-11.8-6.4-12.5-4.7-13.8
		c2.5-1.8,2.8-1.4,11.9,16.7c17.6,35.1,28.4,70,33.7,109c1.8,13.6,2.2,21.5,2.2,44.5c0.1,17.1-0.4,32.1-1.2,38.5
		c-4,32.6-11.1,60.5-23.5,92.5c-10,26-33.9,66.3-52.8,89c-11,13.3-36.9,38.7-49.8,49.1c-18.8,15.1-58.5,40.4-63.3,40.4
		C852.9,701,851.9,700.2,851.6,699.3L851.6,699.3z"/>
	<path class="st0" d="M512.5,689.5c-26.6-16.7-46.4-32.4-67.1-53c-27.7-27.6-47.6-54.9-64.3-88.3C348.7,483.5,337.2,411.9,348,341
		c6.3-41.6,21.7-85.6,42.2-120.7c6.2-10.7,7.5-12.2,9.2-11.7c1.2,0.4,2.3,0.8,2.5,1c0.1,0.1-2.6,5.4-6.2,11.6
		c-24.9,43.5-39,86.8-44.8,137.3c-1.7,14.3-1.7,54.9,0,69c3,26.4,8.5,50.8,16.6,74.5c11.8,34.2,29.1,67.3,48.7,93.3
		c27.2,36.1,62.9,68.7,96.8,88.5c12.4,7.2,12.2,7,10.9,9.3c-0.5,1-1.3,1.9-1.8,1.9C521.7,695,517.3,692.5,512.5,689.5z"/>
	<path class="st0" d="M975.2,216.4c-2.6-1.8-5.2-6.5-5.2-9.4c0-2.7,4.7-5.1,6-3c0.5,0.9,0.5,2-0.2,2.7c-1.8,2.2,0.6,6.3,3.7,6.3
		c3.4,0,4-2.1,2.5-7.6c-1.2-4.1-1.1-4.8,0.7-7.2c4.2-5.7,12.8-3.2,15.4,4.5c1,3.2,0.9,3.8-0.7,5c-3.3,2.4-6.8,0.7-4.4-2.2
		c1.8-2.1-0.5-5.5-3.7-5.5h-2.5l0.7,6.5c0.9,8.5-0.7,11.5-6.3,11.5C979.1,218,976.4,217.3,975.2,216.4L975.2,216.4z"/>
	<path class="st0" d="M418,203.5c0-1.9-1.6-3.5-7.4-7.5c-7.3-4.9-9.4-5.1-8.1-1c0.4,1.3,0.1,2.2-0.9,2.6c-1.7,0.7-5.6-1.2-5.6-2.8
		c0-0.6,2.5-4.6,5.6-8.9l5.7-7.8l2.8,1.6c2.1,1.2,2.6,2.1,1.9,3.2c-0.5,0.9-1.7,1.6-2.7,1.6c-3.9,0-2,3.1,4.6,7.6
		c5.3,3.7,7.3,4.6,9.6,4.1c2.5-0.4,2.7-0.2,2.1,1.4c-1.3,3.4-5.1,8.4-6.3,8.4C418.6,206,418,204.9,418,203.5L418,203.5z"/>
	<path class="st0" d="M960,194.9c-3.6-5.1-3.8-6.3-0.6-5.5c2.4,0.6,3.3,0.1,12.3-7.1c4.4-3.5,4.9-6.4,1-6c-3.1,0.3-3.3-2.7-0.3-4.6
		c2.4-1.6,2.5-1.6,8.6,6.5s6.1,8.1,4.1,10.1c-2.6,2.6-5.4,1.6-4.5-1.7c1-4.2-1.2-3.8-8.5,1.6c-5,3.8-7.1,5.9-7.1,7.5
		C965,199.5,963.2,199.2,960,194.9z"/>
	<path class="st0" d="M430.7,189c-0.3-0.8-0.7-2-0.9-2.6c-0.5-1.9-13.8-12.5-14.8-11.9c-0.5,0.3-1.7,0.2-2.6-0.3
		c-1.3-0.7-0.6-2,4.2-7.8c3.1-3.8,6.2-6.8,6.8-6.6c4,1.2,5.5,6.6,1.6,6c-2-0.3-5,1.9-5,3.7c0,0.6,0.9,2,2.1,3.1
		c2.1,1.9,2.1,1.9,4.9-1.4c1.8-2.2,3.2-3.1,4.3-2.6c2.2,0.8,2.2,0.9-0.9,5c-2.6,3.3-2.6,3.5-0.9,5.4c1,1.1,2.3,2,3,2
		c2.1,0,4.7-3.7,4.1-5.8c-1-3.1,1.5-4.4,4.3-2.1c2.9,2.4,2.4,3.8-4.9,11.9C432.6,188.9,431,190.1,430.7,189L430.7,189z"/>
	<path class="st0" d="M949.8,182.3c-0.8-1-2.1-2.8-2.7-4c-1.2-2.3-0.7-2.8,2.4-2.4c0.6,0,1.6-1.2,2.2-2.8c0.8-2.3,0.8-3.4-0.4-5
		c-1.3-2-1.5-2-3.8-0.5c-1.5,1-2.5,2.6-2.5,4c0,3.3-2,2.9-5.4-1.2c-3.1-3.8-3-4.4,0.7-4.8c3.1-0.4,14.7-10.4,14.7-12.8
		c0-3.6,2.4-3.1,6.2,1.3c5.1,5.8,7.1,9.6,6.4,12.4c-0.7,2.9-5.2,5.8-8.1,5.3c-1.9-0.4-2.5,0.2-3.9,4.2c-0.9,2.6-1.6,5.3-1.4,6
		C954.7,184.1,951.6,184.3,949.8,182.3z M962.4,165.3c0.6-1.5-1.9-7.3-3.2-7.3c-0.4,0-2,1.2-3.7,2.7l-2.9,2.6l2.7,2.2
		C958.1,168,961.4,167.9,962.4,165.3L962.4,165.3z"/>
	<path class="st0" d="M445,169c0-2.6-11.2-14-13.9-14c-3.6,0-3.3-2,1.1-6.6c5.1-5.5,9.9-7.9,12.8-6.4c2.6,1.4,5,5,5,7.5
		c0,1.6,1,2.4,4.5,3.3c2.4,0.6,5.1,0.9,5.9,0.6c3-1.1,2.7,1.9-0.5,5.2c-3.9,4-4.5,4.2-5.3,1s-6.1-4.6-8.4-2.2
		c-1.4,1.4-1.4,1.8,0.7,4c1.4,1.5,2.9,2.2,4.2,1.9c2.8-0.8,2.4,1.9-0.9,5C446.9,171.5,445,171.8,445,169L445,169z M444.9,152.8
		c1.4-2.4,1.4-2.8-0.3-4.7c-2.4-2.6-2.9-2.6-6.1,0.2l-2.7,2.2l2.2,2.8C440.6,156.6,442.9,156.5,444.9,152.8L444.9,152.8z"/>
	<path class="st0" d="M930.6,161c-3.1-3.8-3.3-5-0.7-5c3.3,0,3.5-2,0.5-5.1c-3.3-3.4-6.4-3.9-6.4-0.9c0,2.8-2.2,2.5-5.4-0.9
		c-2.9-3-2.5-4.2,1.9-4.7c3.8-0.5,17.4-8.4,16.9-9.8c-0.3-0.8,0-1.7,0.6-2.1c1.3-0.8,7,4.2,7,6c0,0.7-2,5.4-4.4,10.6
		s-4.6,10.5-4.8,11.8C935.3,164.5,933.6,164.5,930.6,161L930.6,161z M937.9,144.8c1.1-2.3,1.9-4.4,1.6-4.6c-0.6-0.7-8.5,4.1-8.5,5.1
		s3,3.6,4.1,3.7C935.5,149,936.7,147.1,937.9,144.8L937.9,144.8z"/>
	<path class="st0" d="M464.5,151c-0.3-0.5-0.3-1.5,0-2c0.9-1.4-11.6-15.1-13.4-14.7c-0.8,0.1-1.7-0.6-1.9-1.5
		c-0.4-2.1,8.6-9.4,12.9-10.3c4-0.9,7.9,2.5,7.9,6.9c0,2.7,0.5,3.3,4,4.4c2.2,0.6,4.8,1.2,5.9,1.2c3.5,0,3.6,2.2,0.2,5.2
		c-3.3,3-5.6,3.3-5.6,0.7c0-1.6-3.2-3.8-5.6-3.9c-0.9,0-2.2,0.7-2.9,1.5c-1,1.3-1,1.9,0.5,3.5c1,1.1,2.6,2,3.6,2
		c3.3,0,3.3,2.3-0.2,5.1C466.2,152.2,465.4,152.5,464.5,151L464.5,151z M464.5,134.4c0.9-0.9,1.5-2.8,1.3-4.3
		c-0.4-3.4-4.6-4.1-7.3-1.1c-1.8,2-1.8,2.1,0.5,4.5C461.8,136.4,462.3,136.5,464.5,134.4L464.5,134.4z"/>
	<path class="st0" d="M898,131.9c-6.8-5.2-7.9-7.1-4.5-7.7c1.1-0.3,2.3-1,2.7-1.7c0.5-0.7,2.8-3.8,5.3-6.8c2.5-3.1,4.5-6.5,4.5-7.6
		c0-2.7,1.8-2.6,5.4,0.2c3,2.4,2.9,4.7-0.2,4.7c-1.4,0.1-8.9,8.9-11.5,13.6c-1.1,1.9,4.3,4.9,6.3,3.6c1-0.6,2.3-0.7,3.1-0.2
		c1.1,0.8,1,1.4-0.7,3.6c-1.1,1.5-2.4,2.9-3,3.1C904.9,136.8,901.6,134.7,898,131.9L898,131.9z"/>
	<path class="st0" d="M485.2,132.1c0.4-2.5-8.7-15-11.8-16.2c-3.1-1.1-3-2,0.6-5.3c3.3-2.9,5-2.7,5,0.7c0,2.8,9.5,15,12.3,15.7
		c3.2,0.8,3,2.3-0.6,4.8C486.6,134.5,484.8,134.6,485.2,132.1z"/>
	<path class="st0" d="M883.7,121.4c-4-2.7-4.9-5.4-1.7-5.4s2.3-2.7-1.6-5.4c-4-2.7-6.8-2.5-5.9,0.4c0.9,2.9-1.3,3.3-5.1,1
		c-3.7-2.3-4-4.3-0.8-4.8C872,106.5,885,96.1,885,94c0-1,0.4-2.1,0.8-2.4c1.2-0.7,7.2,3.4,7.2,5.1c0,0.8-1.1,5.9-2.5,11.4
		c-1.4,5.4-2.3,11-1.9,12.3C889.4,123.9,887.8,124.2,883.7,121.4L883.7,121.4z M886.9,104.4c0.7-2.6,1-4.8,0.8-5s-2,1.1-4.1,2.8
		l-3.9,3.2l2.3,1.8C885.2,109.8,885.6,109.5,886.9,104.4z"/>
	<path class="st0" d="M500.4,120.5c0.8-3.2-7.8-16.8-10.3-16.3c-0.9,0.2-1.5,1.2-1.3,2.2c0.3,1.6-1.2,3.5-2.8,3.6
		c-0.3,0-1.3-1.3-2.3-2.9l-1.7-2.8l7.2-4.9c3.9-2.7,7.7-5.3,8.5-5.9c1.1-0.7,1.9-0.4,3.4,1.4c2.6,3.2,1.9,4.7-2,4.3
		c-4.3-0.3-4,1.1,1.7,9.4c3.2,4.6,5.4,6.9,6.7,6.9c3,0,2.4,2.1-1.4,5C501.6,123.8,499.6,123.8,500.4,120.5L500.4,120.5z"/>
	<path class="st0" d="M517.1,106.8c-4.9-3.3-7.2-6.9-7.8-12c-0.7-5.8,1.5-10,6.3-12.3c6.5-3.1,12.6-0.1,16.8,8.2
		c2.6,5.2,2.1,9.8-1.6,13.8C526.4,109.2,521.8,110,517.1,106.8L517.1,106.8z M527.4,102.4c3.2-3.1,1.1-11.5-3.6-14.8
		c-6.8-4.8-12.5,2.4-8.3,10.4C518.4,103.5,524.2,105.7,527.4,102.4L527.4,102.4z"/>
	<path class="st0" d="M857.8,105.4c-3.4-1.8-3.6-3.6-0.6-4.9c2.6-1.2,10-14.3,9.4-16.7c-0.6-2.8,1.2-3.2,5.5-1.3
		c4.3,2,5,3.4,1.9,4.2c-2.7,0.7-11.1,15.3-10.3,18.2C864.4,107.5,861.9,107.7,857.8,105.4L857.8,105.4z"/>
	<path class="st0" d="M541.5,97c-0.4-0.6-0.2-1.7,0.4-2.4c1.4-1.7-6.1-17.6-8.4-17.6c-0.8,0-1.5-0.8-1.5-1.7c0-1.2,2.1-2.7,6.5-4.5
		c7.9-3.4,9.9-3.5,13.1-0.3c2.2,2.2,2.5,3.1,1.9,6.5c-0.6,3.6-0.4,4,3.2,6.4c2.1,1.4,4.3,2.6,5,2.6c2.6,0,1.2,2.7-2.2,4.3
		c-4.8,2.3-5.3,2.2-5.7-1c-0.4-3.6-4.9-6.3-7.1-4.4c-2,1.6-0.3,7.3,2.1,6.9c0.9-0.2,1.8,0.4,2,1.3c0.2,1.1-1,2.2-3.8,3.3
		C542.2,98.3,542.3,98.3,541.5,97L541.5,97z M547,80.2c3.3-2.7,2.1-7.2-1.8-7.2c-4.7,0-5.6,1.2-3.8,5.4
		C543.1,82.5,543.9,82.7,547,80.2L547,80.2z"/>
	<path class="st0" d="M840.3,96.3c-3.8-1.9-4.8-5.9-1.3-5c1.7,0.4,2.7-0.7,6.1-7.4c2.2-4.4,3.7-8.5,3.3-9c-0.3-0.6-1.7-0.8-3.1-0.5
		c-3.5,0.9-4.3,0-3.1-3.4c0.5-1.7,1.2-3,1.4-3c1.7,0,17.5,8.2,18,9.4c0.8,2.1-1.5,5.8-3.4,5.4c-0.9-0.2-1.7-1.2-1.7-2.3
		s-0.7-2.1-1.5-2.3c-2.3-0.4-9.8,15.2-8.2,17.1C849.3,98.3,845.4,98.8,840.3,96.3z"/>
	<path class="st0" d="M824.3,88.8c-2.6-1.2-3.1-4.8-0.8-4.8c2,0,2-4.4-0.1-6.4c-3.3-3.4-6.2-0.6-4.9,4.7c0.9,3.5-0.4,3.9-5.3,1.7
		c-3-1.3-4-2.3-3.6-3.4c0.3-0.9,1.1-1.4,1.7-1.3c1.5,0.3,7.8-15,7.5-18.2c-0.3-2.2,0-2.6,2.2-2.3c4.6,0.5,12.9,5,14.1,7.6
		c1.7,3.5,0.3,7.5-3.2,9.4c-2.8,1.6-3,2-2.5,5.7c0.3,2.2,0.9,5,1.2,6.3c0.5,1.8,0.3,2.2-1.7,2.1C827.6,89.9,825.5,89.4,824.3,88.8
		L824.3,88.8z M830,71.1c0.5-1.1,1-2.4,1-2.9c0-1.1-6.1-4.2-7.1-3.6c-1.1,0.6-2.1,6.2-1.4,7.4C823.6,73.8,828.8,73.2,830,71.1z"/>
	<path class="st0" d="M566.6,86.3c-0.3-0.3-0.3-1.8,0-3.3c0.7-3.4-5.1-18-7.2-18c-2.7,0-1.4-2.6,2.1-4.3c4.9-2.3,5.8-2.2,5.2,1
		c-0.6,3.4,5,18.1,7.5,19.4c3.3,1.7,2.1,2.9-5.4,5.2C567.9,86.6,566.9,86.6,566.6,86.3L566.6,86.3z"/>
	<path class="st0" d="M510,81.6c0-2.8,2.3-7.6,3.6-7.6c1.8,0,1.8,2.4-0.1,6C511.9,83.1,510,84,510,81.6z"/>
	<path class="st0" d="M800.5,79.6c-4-1.2-6.3-4.6-3.1-4.6c0.9,0,1.6-0.8,1.6-1.8c0-1.3-1.2-2.1-4.2-2.9c-5.2-1.4-5.9-1-5.1,2.7
		c0.6,3.4-0.1,3.7-5.2,1.6c-3.7-1.6-4.5-3.3-1.9-4.3c0.8-0.3,4.2-4,7.4-8.3c4.4-5.8,5.6-8,4.7-8.9c-0.8-0.8-0.8-1.4,0.1-2.3
		c0.8-0.8,2-0.8,4.9,0.3l3.8,1.5l0.3,11.4c0.1,6.3,0.7,11.9,1.2,12.4c1.2,1.2,1.3,4.6,0.3,4.5C804.8,80.9,802.7,80.3,800.5,79.6
		L800.5,79.6z M799,65.8c0-0.7,0.3-3.1,0.6-5.3l0.5-4l-3.5,3.9c-4.1,4.5-4.3,5.3-1.8,5.9C798,67.1,799,67,799,65.8L799,65.8z"/>
	<path class="st0" d="M581.5,76.8c-3.4-2.7-5.5-7.5-5.5-12.7c0-8,4-12.1,12-12.1c5,0,9,3.6,10.8,9.8c2.1,6.8,1.6,10-2.2,13.8
		c-2.9,2.9-4.1,3.4-7.9,3.4C585.7,79,583.4,78.3,581.5,76.8L581.5,76.8z M593,73c3.7-3.7,1.4-12.9-4.3-16.4
		c-3.1-1.9-7.1,1.2-7.5,5.8C580.4,71.7,587.7,78.3,593,73L593,73z"/>
	<path class="st0" d="M771.3,71c-2.6-1-3.1-4-0.8-4c0.8,0,1.5-0.8,1.6-1.7c0-1,0.4-3.9,0.8-6.5c0.4-2.7,0.7-4.8,0.6-4.8
		c-0.2,0-2.2,2.9-4.5,6.5s-4.4,6.5-4.7,6.5c-0.2,0-1.2-0.4-2.2-1c-1.4-0.7-2-2.7-2.6-7.5c-0.3-3.6-1-6.3-1.4-6
		c-0.5,0.2-1.4,2.5-2.1,5.1c-1,3.4-1,5.1-0.2,6.4c1.4,2.2,0.6,3-2.9,3c-5.5,0-7.5-2.1-4.3-4.4c1.9-1.5,6.8-18,5.4-18.4
		c-0.5-0.2-1-1.3-1-2.4c0-1.7,0.4-1.9,3.3-1.3c4.3,0.9,5.4,2.6,6.2,9.8c1.3,10.8,1.6,10.9,7,2.4c4.9-7.8,6.5-8.8,10.9-7.1
		c2,0.7,2.1,3,0.3,3.7s-4.1,14.7-3.2,19.3c0.5,3.1,0.4,3.4-1.7,3.3C774.5,71.9,772.5,71.5,771.3,71L771.3,71z"/>
	<path class="st0" d="M617.5,70c-0.4-0.6-0.1-1.8,0.6-2.6c1-1.2,0.8-3.2-0.6-10c-1-4.9-2.4-8.8-3.1-9.1C613.6,48,613,47,613,46
		c0-1.5,1.6-2.1,8.8-3.4c4.8-0.9,9-1.6,9.5-1.6c0.4,0,0.7,1.6,0.7,3.5c0,3.6-1.5,4.6-3.7,2.4c-0.7-0.7-2.4-0.8-4.3-0.4
		c-2.8,0.6-3.1,1-2.8,3.8c0.3,3.4,0.7,3.5,7.3,2.6c2.5-0.3,3,0,3,1.6c0,1.5-1,2.1-4.2,2.8c-3.1,0.6-4.3,1.3-4.2,2.5
		c0.2,3.3,1.4,5.7,2.9,5.7c0.8,0,1.6,0.7,1.8,1.6c0.2,1.2-0.9,1.9-4.2,2.8C618.1,71.2,618.3,71.2,617.5,70L617.5,70z"/>
	<path class="st0" d="M641,64.7c0-0.7,0.4-1.7,0.9-2.2c1.5-1.6-1.5-18.7-3.4-19.8c-2.6-1.4,0.1-3.7,4.4-3.7h3.6l0.1,8.9
		c0.1,7,0.6,9.8,2.2,12.9l2.1,4l-2.2,0.6C644.9,66.4,641,66.1,641,64.7z"/>
	<path class="st0" d="M659.9,61.7c-7-4.7-7.6-16.4-1.2-22.4c2.9-2.8,4.2-3.3,8.1-3.3c5.8,0,6.7,0.6,7.5,4.8c0.6,2.7,0.4,3.2-1.3,3.2
		c-1.1,0-2.4-0.9-3-2c-1.4-2.6-5.4-2.6-7.9-0.1c-6.3,6.3-1.1,19.5,6.8,17.4c2.8-0.7,3-5.9,0.2-6.8c-3.6-1.1-1.3-3.5,3.4-3.5
		c4.3,0,6.5,1.2,4.5,2.5c-0.5,0.3-1,2.6-1,5.1c0,4.2-0.2,4.6-3.5,6C667.6,64.6,663.8,64.4,659.9,61.7z"/>
	<path class="st0" d="M720.3,63.3c-3.8-0.5-4.2-1.6-1.3-3.6c1.7-1.1,2.1-3,2.6-10.5c0.6-8.2,0.5-9.2-1-9.2c-0.9,0-1.9,0.7-2.2,1.5
		c-0.7,1.7-3,2-3.9,0.4c-0.4-0.5-0.4-2.1-0.1-3.5c0.6-2.2,1.1-2.4,5.9-2.3c5.7,0,14.4,1.3,15.3,2.1c0.3,0.3,0.2,1.7-0.2,3.2
		c-0.7,2.9-3.8,3.6-4.8,1.1c-1.1-3-3.6-1.7-3.6,1.9c0,1.8-0.3,6.1-0.6,9.5c-0.6,5.3-0.5,6.1,1,6.1c1.1,0,1.6,0.6,1.4,1.8
		C728.5,63.6,726,64,720.3,63.3L720.3,63.3z"/>
	<path class="st0" d="M683,60c0-1.1,0.5-2,1-2c0.6,0,1-3.8,1-9.5s-0.4-9.5-1-9.5c-0.5,0-1-0.9-1-2c0-1.7,0.7-2,5-2
		c5.2,0,6.2,1,3.6,3.9c-0.9,1-1.2,2.7-0.9,4.4c0.5,2.6,0.8,2.7,6,2.7c5.5,0,5.5,0,5-2.7c-0.3-1.6-0.8-3.8-1.2-5
		c-0.6-1.8-0.2-2.3,1.8-2.8c3.3-0.9,6.7,0.2,6.7,2.1c0,0.8-0.4,1.4-0.9,1.4c-0.4,0-1.1,3.9-1.4,8.8c-0.4,6.6-0.2,9.2,0.9,10.9
		c0.8,1.2,1.4,2.5,1.4,2.8s-2.2,0.5-5,0.5c-3.7,0-5-0.4-5-1.4c0-0.8,0.5-1.8,1-2.1c0.6-0.3,1-2.2,1-4.1V51h-5.5H690v3.4
		c0,1.9,0.5,3.8,1,4.1c0.6,0.3,1,1.3,1,2.1c0,1-1.2,1.4-4.5,1.4C683.7,62,683,61.7,683,60L683,60z"/>
</g>
</svg>
